<svg width="274" height="75" viewBox="0 0 274 75" fill="none" xmlns="http://www.w3.org/2000/svg">
<path d="M98.0938 48.4062H80.4688L76.7812 59H68.5625L85.75 13.5H92.8438L110.062 59H101.812L98.0938 48.4062ZM82.6875 42.0312H95.875L89.2812 23.1562L82.6875 42.0312ZM123.469 16.9688V25.1875H129.438V30.8125H123.469V49.6875C123.469 50.9792 123.719 51.9167 124.219 52.5C124.74 53.0625 125.656 53.3438 126.969 53.3438C127.844 53.3438 128.729 53.2396 129.625 53.0312V58.9062C127.896 59.3854 126.229 59.625 124.625 59.625C118.792 59.625 115.875 56.4062 115.875 49.9688V30.8125H110.312V25.1875H115.875V16.9688H123.469ZM155.469 59C155.135 58.3542 154.844 57.3021 154.594 55.8438C152.177 58.3646 149.219 59.625 145.719 59.625C142.323 59.625 139.552 58.6562 137.406 56.7188C135.26 54.7812 134.188 52.3854 134.188 49.5312C134.188 45.9271 135.521 43.1667 138.188 41.25C140.875 39.3125 144.708 38.3438 149.688 38.3438H154.344V36.125C154.344 34.375 153.854 32.9792 152.875 31.9375C151.896 30.875 150.406 30.3438 148.406 30.3438C146.677 30.3438 145.26 30.7812 144.156 31.6562C143.052 32.5104 142.5 33.6042 142.5 34.9375H134.906C134.906 33.0833 135.521 31.3542 136.75 29.75C137.979 28.125 139.646 26.8542 141.75 25.9375C143.875 25.0208 146.24 24.5625 148.844 24.5625C152.802 24.5625 155.958 25.5625 158.312 27.5625C160.667 29.5417 161.875 32.3333 161.938 35.9375V51.1875C161.938 54.2292 162.365 56.6562 163.219 58.4688V59H155.469ZM147.125 53.5312C148.625 53.5312 150.031 53.1667 151.344 52.4375C152.677 51.7083 153.677 50.7292 154.344 49.5V43.125H150.25C147.438 43.125 145.323 43.6146 143.906 44.5938C142.49 45.5729 141.781 46.9583 141.781 48.75C141.781 50.2083 142.26 51.375 143.219 52.25C144.198 53.1042 145.5 53.5312 147.125 53.5312ZM190.094 59C189.76 58.3542 189.469 57.3021 189.219 55.8438C186.802 58.3646 183.844 59.625 180.344 59.625C176.948 59.625 174.177 58.6562 172.031 56.7188C169.885 54.7812 168.812 52.3854 168.812 49.5312C168.812 45.9271 170.146 43.1667 172.812 41.25C175.5 39.3125 179.333 38.3438 184.312 38.3438H188.969V36.125C188.969 34.375 188.479 32.9792 187.5 31.9375C186.521 30.875 185.031 30.3438 183.031 30.3438C181.302 30.3438 179.885 30.7812 178.781 31.6562C177.677 32.5104 177.125 33.6042 177.125 34.9375H169.531C169.531 33.0833 170.146 31.3542 171.375 29.75C172.604 28.125 174.271 26.8542 176.375 25.9375C178.5 25.0208 180.865 24.5625 183.469 24.5625C187.427 24.5625 190.583 25.5625 192.938 27.5625C195.292 29.5417 196.5 32.3333 196.562 35.9375V51.1875C196.562 54.2292 196.99 56.6562 197.844 58.4688V59H190.094ZM181.75 53.5312C183.25 53.5312 184.656 53.1667 185.969 52.4375C187.302 51.7083 188.302 50.7292 188.969 49.5V43.125H184.875C182.062 43.125 179.948 43.6146 178.531 44.5938C177.115 45.5729 176.406 46.9583 176.406 48.75C176.406 50.2083 176.885 51.375 177.844 52.25C178.823 53.1042 180.125 53.5312 181.75 53.5312ZM223.469 49.8125C223.469 48.4583 222.906 47.4271 221.781 46.7188C220.677 46.0104 218.833 45.3854 216.25 44.8438C213.667 44.3021 211.51 43.6146 209.781 42.7812C205.99 40.9479 204.094 38.2917 204.094 34.8125C204.094 31.8958 205.323 29.4583 207.781 27.5C210.24 25.5417 213.365 24.5625 217.156 24.5625C221.198 24.5625 224.458 25.5625 226.938 27.5625C229.438 29.5625 230.688 32.1562 230.688 35.3438H223.094C223.094 33.8854 222.552 32.6771 221.469 31.7188C220.385 30.7396 218.948 30.25 217.156 30.25C215.49 30.25 214.125 30.6354 213.062 31.4062C212.021 32.1771 211.5 33.2083 211.5 34.5C211.5 35.6667 211.99 36.5729 212.969 37.2188C213.948 37.8646 215.927 38.5208 218.906 39.1875C221.885 39.8333 224.219 40.6146 225.906 41.5312C227.615 42.4271 228.875 43.5104 229.688 44.7812C230.521 46.0521 230.938 47.5938 230.938 49.4062C230.938 52.4479 229.677 54.9167 227.156 56.8125C224.635 58.6875 221.333 59.625 217.25 59.625C214.479 59.625 212.01 59.125 209.844 58.125C207.677 57.125 205.99 55.75 204.781 54C203.573 52.25 202.969 50.3646 202.969 48.3438H210.344C210.448 50.1354 211.125 51.5208 212.375 52.5C213.625 53.4583 215.281 53.9375 217.344 53.9375C219.344 53.9375 220.865 53.5625 221.906 52.8125C222.948 52.0417 223.469 51.0417 223.469 49.8125Z" fill="white"/>
<!-- <path d="M238.539 54.5C239.336 54.5 239.951 54.7285 240.385 55.1855C240.818 55.6309 241.035 56.1934 241.035 56.873C241.035 57.541 240.818 58.0977 240.385 58.543C239.951 58.9766 239.336 59.1934 238.539 59.1934C237.777 59.1934 237.174 58.9766 236.729 58.543C236.283 58.1094 236.061 57.5527 236.061 56.873C236.061 56.1934 236.277 55.6309 236.711 55.1855C237.145 54.7285 237.754 54.5 238.539 54.5ZM250.475 59H246.203V39.9805H250.475V59ZM245.939 35.041C245.939 34.3848 246.145 33.8398 246.555 33.4062C246.977 32.9727 247.574 32.7559 248.348 32.7559C249.121 32.7559 249.719 32.9727 250.141 33.4062C250.562 33.8398 250.773 34.3848 250.773 35.041C250.773 35.6855 250.562 36.2246 250.141 36.6582C249.719 37.0801 249.121 37.291 248.348 37.291C247.574 37.291 246.977 37.0801 246.555 36.6582C246.145 36.2246 245.939 35.6855 245.939 35.041ZM254.342 49.3145C254.342 47.4512 254.711 45.7754 255.449 44.2871C256.188 42.7871 257.225 41.6387 258.561 40.8418C259.896 40.0332 261.432 39.6289 263.166 39.6289C265.732 39.6289 267.812 40.4551 269.406 42.1074C271.012 43.7598 271.879 45.9512 272.008 48.6816L272.025 49.6836C272.025 51.5586 271.662 53.2344 270.936 54.7109C270.221 56.1875 269.189 57.3301 267.842 58.1387C266.506 58.9473 264.959 59.3516 263.201 59.3516C260.518 59.3516 258.367 58.4609 256.75 56.6797C255.145 54.8867 254.342 52.502 254.342 49.5254V49.3145ZM258.613 49.6836C258.613 51.6406 259.018 53.1758 259.826 54.2891C260.635 55.3906 261.76 55.9414 263.201 55.9414C264.643 55.9414 265.762 55.3789 266.559 54.2539C267.367 53.1289 267.771 51.4824 267.771 49.3145C267.771 47.3926 267.355 45.8691 266.523 44.7441C265.703 43.6191 264.584 43.0566 263.166 43.0566C261.771 43.0566 260.664 43.6133 259.844 44.7266C259.023 45.8281 258.613 47.4805 258.613 49.6836Z" fill="#AAAAAA"/> -->
<rect x="3" y="42" width="9" height="20" rx="4.5" fill="white"/>
<rect x="17" y="27" width="9" height="35" rx="4.5" fill="white"/>
<rect x="31" y="37" width="9" height="25" rx="4.5" fill="white"/>
<rect x="45" y="12" width="9" height="50" rx="4.5" fill="white"/>
</svg>
