<?xml version="1.0" encoding="UTF-8"?>
<!DOCTYPE svg PUBLIC "-//W3C//DTD SVG 1.1//EN" "http://www.w3.org/Graphics/SVG/1.1/DTD/svg11.dtd">
<svg version="1.2" width="32.79mm" height="10.48mm" viewBox="1323 1312 3279 1048" preserveAspectRatio="xMidYMid" fill-rule="evenodd" stroke-width="28.222" stroke-linejoin="round" xmlns="http://www.w3.org/2000/svg" xmlns:ooo="http://xml.openoffice.org/svg/export" xmlns:xlink="http://www.w3.org/1999/xlink" xmlns:presentation="http://sun.com/xmlns/staroffice/presentation" xmlns:smil="http://www.w3.org/2001/SMIL20/" xmlns:anim="urn:oasis:names:tc:opendocument:xmlns:animation:1.0" xml:space="preserve">
 <defs class="EmbeddedBulletChars">
  <g id="bullet-char-template-57356" transform="scale(0.00048828125,-0.00048828125)">
   <path d="M 580,1141 L 1163,571 580,0 -4,571 580,1141 Z"/>
  </g>
  <g id="bullet-char-template-57354" transform="scale(0.00048828125,-0.00048828125)">
   <path d="M 8,1128 L 1137,1128 1137,0 8,0 8,1128 Z"/>
  </g>
  <g id="bullet-char-template-10146" transform="scale(0.00048828125,-0.00048828125)">
   <path d="M 174,0 L 602,739 174,1481 1456,739 174,0 Z M 1358,739 L 309,1346 659,739 1358,739 Z"/>
  </g>
  <g id="bullet-char-template-10132" transform="scale(0.00048828125,-0.00048828125)">
   <path d="M 2015,739 L 1276,0 717,0 1260,543 174,543 174,936 1260,936 717,1481 1274,1481 2015,739 Z"/>
  </g>
  <g id="bullet-char-template-10007" transform="scale(0.00048828125,-0.00048828125)">
   <path d="M 0,-2 C -7,14 -16,27 -25,37 L 356,567 C 262,823 215,952 215,954 215,979 228,992 255,992 264,992 276,990 289,987 310,991 331,999 354,1012 L 381,999 492,748 772,1049 836,1024 860,1049 C 881,1039 901,1025 922,1006 886,937 835,863 770,784 769,783 710,716 594,584 L 774,223 C 774,196 753,168 711,139 L 727,119 C 717,90 699,76 672,76 641,76 570,178 457,381 L 164,-76 C 142,-110 111,-127 72,-127 30,-127 9,-110 8,-76 1,-67 -2,-52 -2,-32 -2,-23 -1,-13 0,-2 Z"/>
  </g>
  <g id="bullet-char-template-10004" transform="scale(0.00048828125,-0.00048828125)">
   <path d="M 285,-33 C 182,-33 111,30 74,156 52,228 41,333 41,471 41,549 55,616 82,672 116,743 169,778 240,778 293,778 328,747 346,684 L 369,508 C 377,444 397,411 428,410 L 1163,1116 C 1174,1127 1196,1133 1229,1133 1271,1133 1292,1118 1292,1087 L 1292,965 C 1292,929 1282,901 1262,881 L 442,47 C 390,-6 338,-33 285,-33 Z"/>
  </g>
  <g id="bullet-char-template-9679" transform="scale(0.00048828125,-0.00048828125)">
   <path d="M 813,0 C 632,0 489,54 383,161 276,268 223,411 223,592 223,773 276,916 383,1023 489,1130 632,1184 813,1184 992,1184 1136,1130 1245,1023 1353,916 1407,772 1407,592 1407,412 1353,268 1245,161 1136,54 992,0 813,0 Z"/>
  </g>
  <g id="bullet-char-template-8226" transform="scale(0.00048828125,-0.00048828125)">
   <path d="M 346,457 C 273,457 209,483 155,535 101,586 74,649 74,723 74,796 101,859 155,911 209,963 273,989 346,989 419,989 480,963 531,910 582,859 608,796 608,723 608,648 583,586 532,535 482,483 420,457 346,457 Z"/>
  </g>
  <g id="bullet-char-template-8211" transform="scale(0.00048828125,-0.00048828125)">
   <path d="M -4,459 L 1135,459 1135,606 -4,606 -4,459 Z"/>
  </g>
  <g id="bullet-char-template-61548" transform="scale(0.00048828125,-0.00048828125)">
   <path d="M 173,740 C 173,903 231,1043 346,1159 462,1274 601,1332 765,1332 928,1332 1067,1274 1183,1159 1299,1043 1357,903 1357,740 1357,577 1299,437 1183,322 1067,206 928,148 765,148 601,148 462,206 346,322 231,437 173,577 173,740 Z"/>
  </g>
 </defs>
 <g class="Page">
  <g class="Group">
   <g class="com.sun.star.drawing.ClosedBezierShape">
    <g id="id3">
     <rect class="BoundingBox" stroke="none" fill="none" x="1323" y="1686" width="229" height="275"/>
     <path fill="rgb(0,0,0)" stroke="none" d="M 1331,1960 L 1334,1949 1377,1944 1419,1704 1409,1704 C 1382,1704 1362,1705 1349,1708 L 1337,1751 1323,1751 1334,1686 1550,1686 1539,1751 1525,1751 1527,1708 C 1515,1706 1495,1704 1468,1704 L 1458,1704 1416,1944 1458,1949 1456,1960 1331,1960 Z"/>
    </g>
   </g>
   <g class="com.sun.star.drawing.ClosedBezierShape">
    <g id="id4">
     <rect class="BoundingBox" stroke="none" fill="none" x="1632" y="1774" width="243" height="130"/>
     <path fill="rgb(0,0,0)" stroke="none" d="M 1632,1902 C 1632,1894 1632,1885 1632,1876 1712,1876 1793,1876 1873,1876 1873,1885 1873,1894 1873,1902 1793,1902 1712,1902 1632,1902 Z M 1632,1801 C 1632,1792 1632,1783 1632,1775 1712,1775 1793,1775 1873,1775 1873,1783 1873,1792 1873,1801 1793,1801 1712,1801 1632,1801 Z"/>
    </g>
   </g>
   <g class="com.sun.star.drawing.ClosedBezierShape">
    <g id="id5">
     <rect class="BoundingBox" stroke="none" fill="none" x="2046" y="1561" width="416" height="519"/>
     <path fill="rgb(0,0,0)" stroke="none" d="M 2441,2079 L 2047,2079 2047,2068 2248,1818 2047,1572 2047,1561 2431,1561 2439,1663 2426,1663 C 2421,1611 2396,1586 2352,1586 L 2130,1586 2299,1792 2110,2026 2355,2026 C 2404,2026 2436,2001 2448,1952 L 2460,1954 2441,2079 Z"/>
    </g>
   </g>
   <g class="com.sun.star.drawing.ClosedBezierShape">
    <g id="id6">
     <rect class="BoundingBox" stroke="none" fill="none" x="2018" y="2213" width="107" height="121"/>
     <path fill="rgb(0,0,0)" stroke="none" d="M 2101,2240 C 2101,2237 2100,2234 2098,2231 2096,2229 2093,2228 2089,2228 2083,2228 2077,2231 2070,2236 2062,2241 2057,2247 2052,2255 L 2039,2333 2019,2333 2037,2225 2023,2222 2024,2217 2058,2217 2054,2240 C 2061,2231 2068,2225 2075,2220 2082,2216 2090,2214 2097,2214 2105,2214 2111,2216 2115,2220 2119,2225 2121,2231 2121,2240 2121,2241 2121,2243 2121,2245 2120,2247 2116,2274 2107,2324 L 2123,2327 2122,2333 2086,2333 2098,2261 C 2100,2250 2101,2244 2101,2240 Z"/>
    </g>
   </g>
   <g class="com.sun.star.drawing.ClosedBezierShape">
    <g id="id7">
     <rect class="BoundingBox" stroke="none" fill="none" x="2195" y="2222" width="145" height="77"/>
     <path fill="rgb(0,0,0)" stroke="none" d="M 2196,2298 C 2196,2293 2196,2287 2196,2282 2243,2282 2291,2282 2338,2282 2338,2287 2338,2293 2338,2298 2291,2298 2243,2298 2196,2298 Z M 2196,2238 C 2196,2232 2196,2227 2196,2222 2243,2222 2291,2222 2338,2222 2338,2227 2338,2232 2338,2238 2291,2238 2243,2238 2196,2238 Z"/>
    </g>
   </g>
   <g class="com.sun.star.drawing.ClosedBezierShape">
    <g id="id8">
     <rect class="BoundingBox" stroke="none" fill="none" x="2402" y="2166" width="89" height="168"/>
     <path fill="rgb(0,0,0)" stroke="none" d="M 2457,2323 C 2468,2324 2479,2325 2490,2326 2490,2329 2490,2331 2490,2333 2461,2333 2432,2333 2403,2333 2403,2331 2403,2329 2403,2326 2414,2325 2425,2324 2436,2323 2436,2278 2436,2233 2436,2188 2425,2192 2414,2196 2403,2200 2403,2198 2403,2196 2403,2194 2419,2185 2435,2176 2450,2167 2452,2167 2455,2167 2457,2167 2457,2219 2457,2271 2457,2323 Z"/>
    </g>
   </g>
   <g class="com.sun.star.drawing.ClosedBezierShape">
    <g id="id9">
     <rect class="BoundingBox" stroke="none" fill="none" x="1941" y="1344" width="66" height="147"/>
     <path fill="rgb(0,0,0)" stroke="none" d="M 1963,1465 C 1963,1469 1964,1472 1966,1473 1968,1475 1970,1476 1973,1476 1979,1476 1985,1475 1992,1472 L 1994,1478 C 1984,1485 1974,1489 1964,1489 1957,1489 1952,1487 1949,1483 1945,1479 1943,1474 1943,1467 1943,1464 1943,1461 1944,1458 1944,1455 1949,1429 1957,1381 L 1942,1381 1943,1375 1959,1371 1976,1345 1984,1345 1979,1371 2005,1371 2004,1381 1977,1381 1965,1449 C 1964,1456 1963,1462 1963,1465 Z"/>
    </g>
   </g>
   <g class="com.sun.star.drawing.ClosedBezierShape">
    <g id="id10">
     <rect class="BoundingBox" stroke="none" fill="none" x="2009" y="1368" width="90" height="121"/>
     <path fill="rgb(0,0,0)" stroke="none" d="M 2088,1368 C 2092,1368 2095,1369 2097,1369 L 2092,1400 2087,1400 2082,1384 C 2075,1384 2069,1387 2062,1392 2055,1397 2048,1403 2043,1411 L 2030,1487 2009,1487 2028,1380 2014,1377 2015,1371 2048,1371 2045,1398 C 2051,1388 2058,1381 2065,1376 2073,1371 2080,1368 2088,1368 Z"/>
    </g>
   </g>
   <g class="com.sun.star.drawing.ClosedBezierShape">
    <g id="id11">
     <rect class="BoundingBox" stroke="none" fill="none" x="2103" y="1368" width="110" height="123"/>
     <path fill="rgb(0,0,0)" stroke="none" d="M 2192,1479 L 2206,1482 2205,1487 2170,1487 2174,1468 C 2160,1483 2148,1490 2136,1490 2126,1490 2118,1486 2112,1479 2106,1472 2103,1462 2103,1449 2103,1434 2107,1421 2113,1408 2119,1396 2127,1386 2138,1379 2148,1372 2159,1368 2172,1368 2182,1368 2191,1370 2200,1373 L 2205,1369 2212,1369 2192,1479 Z M 2189,1384 C 2186,1382 2183,1380 2180,1379 2177,1378 2174,1378 2170,1378 2161,1378 2154,1381 2147,1387 2140,1394 2135,1402 2131,1413 2127,1423 2125,1434 2125,1446 2125,1454 2127,1461 2131,1467 2134,1472 2139,1475 2145,1475 2155,1475 2165,1469 2175,1457 L 2189,1384 Z"/>
    </g>
   </g>
   <g class="com.sun.star.drawing.ClosedBezierShape">
    <g id="id12">
     <rect class="BoundingBox" stroke="none" fill="none" x="2231" y="1312" width="120" height="179"/>
     <path fill="rgb(0,0,0)" stroke="none" d="M 2319,1371 C 2319,1367 2322,1350 2327,1321 L 2309,1318 2310,1312 2349,1312 2320,1479 2334,1482 2333,1487 2298,1487 2301,1468 C 2288,1483 2275,1490 2264,1490 2254,1490 2246,1486 2240,1479 2234,1471 2231,1461 2231,1448 2231,1434 2234,1421 2240,1409 2246,1396 2254,1386 2265,1379 2275,1372 2286,1368 2299,1368 2307,1368 2313,1369 2319,1371 Z M 2316,1384 C 2313,1382 2310,1381 2307,1380 2304,1379 2301,1378 2296,1378 2289,1378 2282,1381 2275,1387 2268,1393 2263,1402 2259,1412 2255,1423 2253,1434 2253,1446 2253,1454 2255,1461 2258,1467 2262,1472 2267,1475 2273,1475 2277,1475 2282,1473 2288,1470 2293,1467 2298,1463 2303,1457 L 2316,1384 Z"/>
    </g>
   </g>
   <g class="com.sun.star.drawing.ClosedBezierShape">
    <g id="id13">
     <rect class="BoundingBox" stroke="none" fill="none" x="2357" y="1367" width="100" height="124"/>
     <path fill="rgb(0,0,0)" stroke="none" d="M 2455,1393 C 2455,1404 2448,1414 2435,1421 2421,1429 2403,1434 2380,1436 L 2379,1445 C 2379,1455 2381,1463 2386,1468 2390,1474 2397,1476 2405,1476 2412,1476 2419,1475 2425,1472 2432,1470 2437,1467 2443,1464 L 2446,1469 C 2439,1475 2431,1480 2423,1484 2414,1487 2406,1489 2399,1489 2386,1489 2375,1485 2368,1478 2361,1470 2358,1460 2358,1446 2358,1432 2361,1419 2366,1407 2372,1396 2380,1386 2390,1379 2400,1371 2411,1368 2422,1368 2432,1368 2440,1370 2446,1374 2452,1379 2455,1385 2455,1393 Z M 2381,1428 C 2397,1427 2410,1423 2419,1416 2429,1410 2434,1402 2434,1393 2434,1388 2433,1384 2430,1381 2428,1378 2424,1377 2419,1377 2414,1377 2408,1379 2403,1384 2397,1389 2393,1395 2389,1403 2385,1411 2382,1419 2381,1428 Z"/>
    </g>
   </g>
   <g class="com.sun.star.drawing.ClosedBezierShape">
    <g id="id14">
     <rect class="BoundingBox" stroke="none" fill="none" x="2462" y="1367" width="89" height="123"/>
     <path fill="rgb(0,0,0)" stroke="none" d="M 2544,1452 C 2544,1465 2540,1474 2532,1480 2525,1486 2513,1489 2497,1489 2486,1489 2474,1486 2463,1481 L 2468,1453 2473,1453 2475,1470 C 2477,1473 2480,1475 2484,1477 2488,1478 2492,1479 2497,1479 2515,1479 2524,1472 2524,1457 2524,1452 2522,1448 2518,1444 2515,1440 2508,1436 2500,1432 2492,1428 2486,1424 2482,1419 2478,1414 2476,1408 2476,1401 2476,1391 2479,1382 2487,1376 2494,1370 2504,1367 2517,1367 2526,1367 2537,1369 2549,1371 L 2545,1397 2539,1397 2537,1384 C 2532,1379 2526,1377 2517,1377 2510,1377 2505,1379 2501,1382 2497,1385 2495,1390 2495,1396 2495,1401 2497,1404 2500,1408 2504,1411 2510,1415 2520,1420 2528,1425 2534,1430 2538,1435 2542,1440 2544,1446 2544,1452 Z"/>
    </g>
   </g>
   <g class="com.sun.star.drawing.ClosedBezierShape">
    <g id="id15">
     <rect class="BoundingBox" stroke="none" fill="none" x="2680" y="1670" width="101" height="291"/>
     <path fill="rgb(0,0,0)" stroke="none" d="M 2747,1946 C 2758,1947 2769,1949 2780,1951 2780,1954 2780,1957 2780,1960 2746,1960 2713,1960 2680,1960 2680,1957 2680,1954 2680,1951 2691,1949 2702,1947 2713,1946 2713,1859 2713,1771 2713,1684 2702,1682 2691,1681 2680,1679 2680,1676 2680,1673 2680,1670 2702,1670 2725,1670 2747,1670 2747,1762 2747,1854 2747,1946 Z"/>
    </g>
   </g>
   <g class="com.sun.star.drawing.ClosedBezierShape">
    <g id="id16">
     <rect class="BoundingBox" stroke="none" fill="none" x="2806" y="1763" width="179" height="202"/>
     <path fill="rgb(0,0,0)" stroke="none" d="M 2984,1863 C 2984,1930 2954,1964 2894,1964 2865,1964 2844,1955 2829,1938 2814,1921 2807,1896 2807,1863 2807,1831 2814,1806 2829,1789 2844,1772 2866,1763 2896,1763 2925,1763 2947,1771 2961,1788 2976,1805 2984,1830 2984,1863 Z M 2947,1863 C 2947,1834 2943,1812 2934,1799 2926,1786 2912,1779 2894,1779 2876,1779 2863,1786 2855,1798 2848,1811 2844,1833 2844,1863 2844,1894 2848,1916 2856,1929 2864,1941 2877,1948 2894,1948 2912,1948 2925,1941 2934,1928 2943,1915 2947,1893 2947,1863 Z"/>
    </g>
   </g>
   <g class="com.sun.star.drawing.ClosedBezierShape">
    <g id="id17">
     <rect class="BoundingBox" stroke="none" fill="none" x="3019" y="1745" width="185" height="306"/>
     <path fill="rgb(0,0,0)" stroke="none" d="M 3179,1829 C 3179,1851 3173,1867 3159,1879 3146,1890 3127,1896 3103,1896 3091,1896 3081,1895 3072,1892 L 3059,1919 C 3059,1921 3062,1924 3067,1926 3072,1928 3078,1929 3085,1929 L 3142,1929 C 3162,1929 3178,1933 3188,1942 3198,1951 3203,1964 3203,1979 3203,1994 3199,2006 3191,2017 3183,2027 3171,2036 3156,2041 3140,2047 3122,2050 3100,2050 3074,2050 3054,2046 3040,2038 3027,2030 3020,2018 3020,2004 3020,1996 3022,1989 3027,1982 3032,1975 3041,1967 3054,1958 3046,1955 3040,1951 3035,1944 3029,1938 3027,1931 3027,1924 L 3059,1888 C 3037,1878 3027,1858 3027,1829 3027,1808 3033,1792 3046,1780 3060,1769 3079,1763 3104,1763 3109,1763 3116,1764 3124,1765 3131,1766 3137,1767 3142,1768 L 3187,1745 3194,1754 3166,1784 C 3175,1794 3179,1809 3179,1829 Z M 3171,1986 C 3171,1978 3168,1972 3164,1968 3159,1963 3152,1961 3142,1961 L 3068,1961 C 3062,1966 3058,1972 3054,1980 3050,1987 3049,1994 3049,2001 3049,2012 3053,2021 3061,2026 3070,2031 3083,2034 3100,2034 3123,2034 3140,2029 3152,2021 3165,2013 3171,2001 3171,1986 Z M 3103,1880 C 3118,1880 3128,1876 3134,1867 3141,1859 3144,1846 3144,1829 3144,1811 3141,1798 3134,1790 3128,1782 3118,1779 3103,1779 3089,1779 3079,1782 3072,1790 3065,1798 3062,1811 3062,1829 3062,1847 3065,1860 3072,1868 3078,1876 3089,1880 3103,1880 Z"/>
    </g>
   </g>
   <g class="com.sun.star.drawing.ClosedBezierShape">
    <g id="id18">
     <rect class="BoundingBox" stroke="none" fill="none" x="3247" y="1901" width="90" height="168"/>
     <path fill="rgb(0,0,0)" stroke="none" d="M 3303,2058 C 3314,2059 3325,2060 3336,2061 3336,2064 3336,2066 3336,2068 3307,2068 3277,2068 3248,2068 3248,2066 3248,2064 3248,2061 3259,2060 3270,2059 3282,2058 3282,2013 3282,1968 3282,1923 3271,1927 3259,1931 3248,1935 3248,1933 3248,1931 3248,1929 3264,1920 3280,1911 3296,1902 3298,1902 3300,1902 3303,1902 3303,1954 3303,2006 3303,2058 Z"/>
    </g>
   </g>
   <g class="com.sun.star.drawing.ClosedBezierShape">
    <g id="id19">
     <rect class="BoundingBox" stroke="none" fill="none" x="3362" y="1900" width="108" height="171"/>
     <path fill="rgb(0,0,0)" stroke="none" d="M 3469,1984 C 3469,2041 3451,2070 3415,2070 3398,2070 3385,2063 3376,2048 3367,2034 3363,2012 3363,1984 3363,1957 3367,1936 3376,1922 3385,1907 3398,1900 3416,1900 3433,1900 3447,1907 3456,1921 3464,1936 3469,1957 3469,1984 Z M 3446,1984 C 3446,1958 3444,1939 3439,1927 3434,1916 3426,1910 3415,1910 3405,1910 3397,1915 3392,1926 3388,1937 3385,1957 3385,1984 3385,2012 3388,2032 3393,2043 3397,2055 3405,2060 3415,2060 3426,2060 3434,2054 3439,2042 3444,2030 3446,2011 3446,1984 Z"/>
    </g>
   </g>
   <g class="com.sun.star.drawing.ClosedBezierShape">
    <g id="id20">
     <rect class="BoundingBox" stroke="none" fill="none" x="3551" y="1602" width="82" height="460"/>
     <path fill="rgb(0,0,0)" stroke="none" d="M 3631,2050 L 3631,2060 C 3578,2015 3551,1938 3551,1831 3551,1723 3578,1647 3631,1602 L 3631,1613 C 3593,1652 3573,1725 3573,1831 3573,1939 3593,2012 3631,2050 Z"/>
    </g>
   </g>
   <g class="com.sun.star.drawing.ClosedBezierShape">
    <g id="id21">
     <rect class="BoundingBox" stroke="none" fill="none" x="3935" y="1452" width="190" height="193"/>
     <path fill="rgb(0,0,0)" stroke="none" d="M 3970,1627 C 3970,1631 3973,1633 3978,1635 L 3977,1644 3939,1644 C 3937,1642 3936,1639 3936,1635 3936,1631 3938,1627 3942,1621 3947,1616 3954,1608 3964,1599 L 4019,1547 3984,1466 3963,1461 3964,1452 4015,1452 4044,1525 4069,1501 C 4078,1493 4084,1486 4088,1481 4091,1477 4093,1473 4093,1469 4093,1468 4092,1467 4091,1466 4090,1465 4087,1463 4081,1461 L 4083,1452 4119,1452 C 4122,1454 4123,1457 4123,1461 4123,1469 4114,1482 4095,1500 L 4051,1541 4090,1631 4114,1635 4112,1644 4060,1644 4026,1562 3992,1596 C 3984,1603 3979,1609 3975,1614 3972,1618 3970,1623 3970,1627 Z"/>
    </g>
   </g>
   <g class="com.sun.star.drawing.ClosedBezierShape">
    <g id="id22">
     <rect class="BoundingBox" stroke="none" fill="none" x="4160" y="1632" width="107" height="121"/>
     <path fill="rgb(0,0,0)" stroke="none" d="M 4243,1659 C 4243,1656 4242,1653 4240,1650 4238,1648 4235,1647 4231,1647 4225,1647 4219,1650 4212,1655 4204,1660 4199,1666 4194,1674 L 4181,1751 4161,1751 4179,1644 4165,1641 4166,1636 4200,1636 4196,1659 C 4203,1650 4210,1644 4217,1639 4224,1635 4232,1633 4239,1633 4247,1633 4253,1635 4257,1639 4261,1644 4263,1650 4263,1659 4263,1660 4263,1662 4263,1664 4262,1666 4258,1693 4249,1743 L 4265,1746 4264,1751 4228,1751 4240,1680 C 4242,1669 4243,1663 4243,1659 Z"/>
    </g>
   </g>
   <g class="com.sun.star.drawing.ClosedBezierShape">
    <g id="id23">
     <rect class="BoundingBox" stroke="none" fill="none" x="3703" y="1831" width="760" height="22"/>
     <path fill="rgb(0,0,0)" stroke="none" d="M 3703,1831 C 3956,1831 4209,1831 4462,1831 4462,1838 4462,1844 4462,1851 4209,1851 3956,1851 3703,1851 3703,1844 3703,1838 3703,1831 Z"/>
    </g>
   </g>
   <g class="com.sun.star.drawing.ClosedBezierShape">
    <g id="id24">
     <rect class="BoundingBox" stroke="none" fill="none" x="3749" y="2058" width="190" height="194"/>
     <path fill="rgb(0,0,0)" stroke="none" d="M 3784,2234 C 3784,2238 3787,2240 3792,2242 L 3791,2251 3753,2251 C 3751,2249 3750,2246 3750,2242 3750,2238 3752,2234 3756,2228 3761,2223 3768,2215 3778,2206 L 3833,2154 3798,2073 3777,2068 3778,2059 3829,2059 3858,2132 3883,2108 C 3892,2100 3898,2093 3902,2088 3905,2084 3907,2080 3907,2076 3907,2075 3906,2074 3905,2073 3904,2072 3901,2070 3895,2068 L 3897,2059 3933,2059 C 3936,2061 3937,2064 3937,2068 3937,2076 3928,2089 3909,2107 L 3865,2148 3904,2238 3928,2242 3926,2251 3874,2251 3840,2169 3806,2203 C 3798,2210 3793,2216 3789,2221 3786,2225 3784,2230 3784,2234 Z"/>
    </g>
   </g>
   <g class="com.sun.star.drawing.ClosedBezierShape">
    <g id="id25">
     <rect class="BoundingBox" stroke="none" fill="none" x="3975" y="2239" width="107" height="121"/>
     <path fill="rgb(0,0,0)" stroke="none" d="M 4058,2266 C 4058,2263 4057,2260 4055,2257 4053,2255 4050,2254 4046,2254 4040,2254 4034,2257 4027,2262 4019,2267 4014,2273 4009,2281 4005,2307 4000,2333 3996,2359 3989,2359 3982,2359 3976,2359 3982,2323 3988,2287 3994,2251 3990,2250 3985,2249 3980,2248 3980,2246 3981,2245 3981,2243 3992,2243 4003,2243 4015,2243 4013,2251 4012,2258 4011,2266 4018,2257 4025,2251 4032,2246 4039,2242 4047,2240 4054,2240 4062,2240 4068,2242 4072,2246 4076,2251 4078,2257 4078,2266 4078,2267 4078,2269 4078,2271 4077,2273 4073,2300 4064,2350 4070,2351 4075,2352 4080,2353 4080,2355 4080,2357 4079,2359 4067,2359 4055,2359 4043,2359 4047,2335 4051,2311 4055,2287 4057,2276 4058,2270 4058,2266 Z"/>
    </g>
   </g>
   <g class="com.sun.star.drawing.ClosedBezierShape">
    <g id="id26">
     <rect class="BoundingBox" stroke="none" fill="none" x="4125" y="2281" width="145" height="14"/>
     <path fill="rgb(0,0,0)" stroke="none" d="M 4126,2282 C 4173,2282 4221,2282 4269,2282 4269,2286 4269,2290 4269,2294 4221,2294 4173,2294 4126,2294 4126,2290 4126,2286 4126,2282 Z"/>
    </g>
   </g>
   <g class="com.sun.star.drawing.ClosedBezierShape">
    <g id="id27">
     <rect class="BoundingBox" stroke="none" fill="none" x="4332" y="2192" width="89" height="168"/>
     <path fill="rgb(0,0,0)" stroke="none" d="M 4387,2349 C 4398,2350 4409,2351 4420,2352 4420,2355 4420,2357 4420,2359 4391,2359 4362,2359 4333,2359 4333,2357 4333,2355 4333,2352 4344,2351 4355,2350 4366,2349 4366,2304 4366,2259 4366,2214 4355,2218 4344,2222 4333,2226 4333,2224 4333,2222 4333,2220 4349,2211 4365,2202 4380,2193 4382,2193 4385,2193 4387,2193 4387,2245 4387,2297 4387,2349 Z"/>
    </g>
   </g>
   <g class="com.sun.star.drawing.ClosedBezierShape">
    <g id="id28">
     <rect class="BoundingBox" stroke="none" fill="none" x="4520" y="1602" width="82" height="460"/>
     <path fill="rgb(0,0,0)" stroke="none" d="M 4521,2050 C 4560,2012 4579,1939 4579,1831 4579,1725 4560,1652 4521,1613 L 4521,1602 C 4550,1626 4571,1661 4584,1707 4595,1743 4601,1785 4601,1831 4601,1940 4574,2016 4521,2060 L 4521,2050 Z"/>
    </g>
   </g>
  </g>
 </g>
</svg>