<svg width="24" height="24" viewBox="0 0 24 24" fill="none" xmlns="http://www.w3.org/2000/svg">
<g clip-path="url(#clip0)">
<path d="M12.312 7.92358C11.6697 7.92358 10.5938 7.92358 10.5938 7.92358V11.3102H13.2965V12.7282H10.5938V16.1148C10.5938 16.1148 11.9325 16.1148 12.3953 16.1148C12.8583 16.1148 16.1965 16.1671 16.1915 12.1745C16.1864 8.18213 12.9542 7.92358 12.312 7.92358Z" fill="#F59E0B"/>
<path d="M12.0233 0C5.38298 0 0 5.38298 0 12.0232C0 18.6636 5.38298 24.0466 12.0233 24.0466C18.6635 24.0466 24.0465 18.6636 24.0465 12.0232C24.0465 5.38298 18.6635 0 12.0233 0ZM12.4958 18.517H8.14135V12.7283H6.60649V11.3102H8.14125V5.52119C8.14125 5.52119 10.9942 5.52119 11.8783 5.52119C12.7625 5.52119 18.6181 5.33758 18.6181 12.1277C18.6181 19.0301 12.4958 18.517 12.4958 18.517Z" fill="#F59E0B"/>
</g>
<defs>
<clipPath id="clip0">
<rect width="24" height="24" fill="white"/>
</clipPath>
</defs>
</svg>
